HIERARCHY
ROOT Hips
{
	OFFSET 0.000000 83.214638 0.000000
	CHANNELS 6 Xposition Yposition Zposition Xrotation Yrotation Zrotation
	JOINT Pelvis
	{
		OFFSET 0.000000 0.000000 0.000000
		CHANNELS 3 Xrotation Yrotation Zrotation
		JOINT LeftUpLeg
		{
			OFFSET 8.479700 -4.795502 -0.379100
			CHANNELS 3 Xrotation Yrotation Zrotation
			JOINT LeftLeg
			{
				OFFSET 0.024144 -32.555107 0.112900
				CHANNELS 3 Xrotation Yrotation Zrotation
				JOINT LeftFoot
				{
					OFFSET -0.024144 -32.638630 -3.012600
					CHANNELS 3 Xrotation Yrotation Zrotation
					JOINT LeftToeBase
					{
						OFFSET 0.970200 -13.225400 11.864200
						CHANNELS 3 Xrotation Yrotation Zrotation
						End Site
						{
							OFFSET 0.000000 12.319262 0.000000
						}
					}
					JOINT LFootTongue
					{
						OFFSET 1.142400 -1.059800 6.665200
						CHANNELS 3 Xrotation Yrotation Zrotation
						End Site
						{
							OFFSET 0.000000 12.319262 0.000000
						}
					}
				}
				JOINT LeftPantLeg
				{
					OFFSET 0.918482 -16.533964 -2.284700
					CHANNELS 3 Xrotation Yrotation Zrotation
					End Site
					{
						OFFSET 0.350399 24.744368 0.000000
					}
				}
			}
		}
		JOINT RightUpLeg
		{
			OFFSET -8.479700 -4.795502 -0.379100
			CHANNELS 3 Xrotation Yrotation Zrotation
			JOINT RightLeg
			{
				OFFSET -0.023144 -32.555092 0.112900
				CHANNELS 3 Xrotation Yrotation Zrotation
				JOINT RightFoot
				{
					OFFSET 0.023144 -32.638641 -3.012700
					CHANNELS 3 Xrotation Yrotation Zrotation
					JOINT RightToeBase
					{
						OFFSET -0.970200 -13.225400 11.864200
						CHANNELS 3 Xrotation Yrotation Zrotation
						End Site
						{
							OFFSET 0.000000 12.319244 0.000000
						}
					}
					JOINT RFootTongue
					{
						OFFSET -1.142200 -1.059800 6.665200
						CHANNELS 3 Xrotation Yrotation Zrotation
						End Site
						{
							OFFSET 0.000000 12.319243 0.000000
						}
					}
				}
				JOINT RightPantLeg
				{
					OFFSET -0.919482 -16.533978 -2.284800
					CHANNELS 3 Xrotation Yrotation Zrotation
					End Site
					{
						OFFSET -0.350400 24.744419 0.000000
					}
				}
			}
		}
	}
	JOINT Spine
	{
		OFFSET 0.000000 7.722000 1.166200
		CHANNELS 3 Xrotation Yrotation Zrotation
		JOINT Spine1
		{
			OFFSET 0.000000 12.024101 0.248800
			CHANNELS 3 Xrotation Yrotation Zrotation
			JOINT Spine2
			{
				OFFSET 0.000000 11.502998 -0.491200
				CHANNELS 3 Xrotation Yrotation Zrotation
				JOINT Neck
				{
					OFFSET 0.000000 18.430702 -3.123100
					CHANNELS 3 Xrotation Yrotation Zrotation
					JOINT Head
					{
						OFFSET 0.000000 9.051102 1.034000
						CHANNELS 3 Xrotation Yrotation Zrotation
						JOINT HairB
						{
							OFFSET 0.208400 24.786102 24.822300
							CHANNELS 3 Xrotation Yrotation Zrotation
							End Site
							{
								OFFSET 0.000000 32.263779 0.000000
							}
						}
						JOINT HairA
						{
							OFFSET -7.081100 24.428299 23.196600
							CHANNELS 3 Xrotation Yrotation Zrotation
							End Site
							{
								OFFSET 0.000000 32.263779 0.000000
							}
						}
						JOINT Hat
						{
							OFFSET 16.728800 15.048294 -15.439601
							CHANNELS 3 Xrotation Yrotation Zrotation
							End Site
							{
								OFFSET 0.000000 32.263779 0.000000
							}
						}
					}
				}
				JOINT LeftShoulder
				{
					OFFSET 6.197800 13.665199 -4.064700
					CHANNELS 3 Xrotation Yrotation Zrotation
					JOINT LeftArm
					{
						OFFSET 7.778100 -0.187103 -1.709300
						CHANNELS 3 Xrotation Yrotation Zrotation
						JOINT LeftForeArm
						{
							OFFSET 22.049376 0.000000 0.000000
							CHANNELS 3 Xrotation Yrotation Zrotation
							JOINT LeftHand
							{
								OFFSET 23.009392 0.000000 0.000000
								CHANNELS 3 Xrotation Yrotation Zrotation
								JOINT LeftHandThumb1
								{
									OFFSET 3.507191 -2.063065 3.133727
									CHANNELS 3 Xrotation Yrotation Zrotation
									JOINT LeftHandThumb2
									{
										OFFSET 3.101337 -1.790558 1.790558
										CHANNELS 3 Xrotation Yrotation Zrotation
										JOINT LeftHandThumb3
										{
											OFFSET 3.058640 -1.765907 1.765906
											CHANNELS 3 Xrotation Yrotation Zrotation
											End Site
											{
												OFFSET -0.415260 3.926476 -0.049563
											}
										}
									}
								}
								JOINT LeftHandIndex1
								{
									OFFSET 11.334419 -0.901459 3.706815
									CHANNELS 3 Xrotation Yrotation Zrotation
									JOINT LeftHandIndex2
									{
										OFFSET 3.283112 0.000000 0.000000
										CHANNELS 3 Xrotation Yrotation Zrotation
										JOINT LeftHandIndex3
										{
											OFFSET 3.323853 0.000000 0.000000
											CHANNELS 3 Xrotation Yrotation Zrotation
											End Site
											{
												OFFSET -1.135597 3.097809 0.402452
											}
										}
									}
								}
								JOINT LeftHandMiddle1
								{
									OFFSET 11.335861 0.000000 0.000000
									CHANNELS 3 Xrotation Yrotation Zrotation
									JOINT LeftHandMiddle2
									{
										OFFSET 3.410492 0.000000 0.000000
										CHANNELS 3 Xrotation Yrotation Zrotation
										JOINT LeftHandMiddle3
										{
											OFFSET 3.312172 0.000000 0.000000
											CHANNELS 3 Xrotation Yrotation Zrotation
											End Site
											{
												OFFSET -1.150200 3.080154 0.400270
											}
										}
									}
								}
								JOINT LeftHandRing1
								{
									OFFSET 11.514786 -0.013176 -3.003090
									CHANNELS 3 Xrotation Yrotation Zrotation
									JOINT LeftHandRing2
									{
										OFFSET 3.053307 0.000000 0.000000
										CHANNELS 3 Xrotation Yrotation Zrotation
										JOINT LeftHandRing3
										{
											OFFSET 3.295807 0.000000 0.000000
											CHANNELS 3 Xrotation Yrotation Zrotation
											End Site
											{
												OFFSET -1.281006 3.013344 0.375733
											}
										}
									}
								}
								JOINT LeftHandPinky1
								{
									OFFSET 10.518692 -0.960396 -5.730441
									CHANNELS 3 Xrotation Yrotation Zrotation
									JOINT LeftHandPinky2
									{
										OFFSET 2.861649 0.000000 0.000000
										CHANNELS 3 Xrotation Yrotation Zrotation
										JOINT LeftHandPinky3
										{
											OFFSET 2.863380 0.000000 0.000000
											CHANNELS 3 Xrotation Yrotation Zrotation
											End Site
											{
												OFFSET -0.843597 2.711159 0.369971
											}
										}
									}
								}
							}
							JOINT LSleeve
							{
								OFFSET 6.676277 -0.344902 -1.011730
								CHANNELS 3 Xrotation Yrotation Zrotation
								End Site
								{
									OFFSET 0.000000 14.885353 0.000000
								}
							}
						}
					}
				}
				JOINT RightShoulder
				{
					OFFSET -6.197800 13.665199 -4.064700
					CHANNELS 3 Xrotation Yrotation Zrotation
					JOINT RightArm
					{
						OFFSET -7.778100 -0.187103 -1.709300
						CHANNELS 3 Xrotation Yrotation Zrotation
						JOINT RightForeArm
						{
							OFFSET -22.049376 0.000000 0.000000
							CHANNELS 3 Xrotation Yrotation Zrotation
							JOINT RightHand
							{
								OFFSET -23.009392 0.000000 0.000000
								CHANNELS 3 Xrotation Yrotation Zrotation
								JOINT RightHandThumb1
								{
									OFFSET -3.507191 -2.063065 3.133727
									CHANNELS 3 Xrotation Yrotation Zrotation
									JOINT RightHandThumb2
									{
										OFFSET -3.101337 -1.790558 1.790558
										CHANNELS 3 Xrotation Yrotation Zrotation
										JOINT RightHandThumb3
										{
											OFFSET -3.058640 -1.765907 1.765906
											CHANNELS 3 Xrotation Yrotation Zrotation
											End Site
											{
												OFFSET 0.415260 3.926476 -0.049563
											}
										}
									}
								}
								JOINT RightHandIndex1
								{
									OFFSET -11.334419 -0.901459 3.706815
									CHANNELS 3 Xrotation Yrotation Zrotation
									JOINT RightHandIndex2
									{
										OFFSET -3.283112 0.000000 0.000000
										CHANNELS 3 Xrotation Yrotation Zrotation
										JOINT RightHandIndex3
										{
											OFFSET -3.323853 0.000000 0.000000
											CHANNELS 3 Xrotation Yrotation Zrotation
											End Site
											{
												OFFSET 1.135597 3.097809 0.402452
											}
										}
									}
								}
								JOINT RightHandMiddle1
								{
									OFFSET -11.335861 0.000000 0.000000
									CHANNELS 3 Xrotation Yrotation Zrotation
									JOINT RightHandMiddle2
									{
										OFFSET -3.410492 0.000000 0.000000
										CHANNELS 3 Xrotation Yrotation Zrotation
										JOINT RightHandMiddle3
										{
											OFFSET -3.312172 0.000000 0.000000
											CHANNELS 3 Xrotation Yrotation Zrotation
											End Site
											{
												OFFSET 1.150200 3.080154 0.400270
											}
										}
									}
								}
								JOINT RightHandRing1
								{
									OFFSET -11.514786 -0.013176 -3.003090
									CHANNELS 3 Xrotation Yrotation Zrotation
									JOINT RightHandRing2
									{
										OFFSET -3.053307 0.000000 0.000000
										CHANNELS 3 Xrotation Yrotation Zrotation
										JOINT RightHandRing3
										{
											OFFSET -3.295807 0.000000 0.000000
											CHANNELS 3 Xrotation Yrotation Zrotation
											End Site
											{
												OFFSET 1.281006 3.013344 0.375733
											}
										}
									}
								}
								JOINT RightHandPinky1
								{
									OFFSET -10.518692 -0.960396 -5.730441
									CHANNELS 3 Xrotation Yrotation Zrotation
									JOINT RightHandPinky2
									{
										OFFSET -2.861649 0.000000 0.000000
										CHANNELS 3 Xrotation Yrotation Zrotation
										JOINT RightHandPinky3
										{
											OFFSET -2.863380 0.000000 0.000000
											CHANNELS 3 Xrotation Yrotation Zrotation
											End Site
											{
												OFFSET 0.843597 2.711159 0.369971
											}
										}
									}
								}
							}
							JOINT RSleeve
							{
								OFFSET -6.676277 -0.344902 -1.011730
								CHANNELS 3 Xrotation Yrotation Zrotation
								End Site
								{
									OFFSET 0.000000 14.885353 0.000000
								}
							}
						}
					}
				}
				JOINT Backpack
				{
					OFFSET 0.000000 -2.471497 36.677502
					CHANNELS 3 Xrotation Yrotation Zrotation
					End Site
					{
						OFFSET 0.000000 20.427315 0.000000
					}
				}
				JOINT Hood
				{
					OFFSET 0.000000 18.754097 -10.431000
					CHANNELS 3 Xrotation Yrotation Zrotation
					JOINT Hood1
					{
						OFFSET 0.000000 -5.011002 -7.685901
						CHANNELS 3 Xrotation Yrotation Zrotation
						End Site
						{
							OFFSET 0.000000 9.175140 0.000000
						}
					}
				}
				JOINT LHoodieString
				{
					OFFSET 5.250500 16.397697 3.089900
					CHANNELS 3 Xrotation Yrotation Zrotation
					JOINT LHoodieString1
					{
						OFFSET 0.257700 -6.364304 3.694600
						CHANNELS 3 Xrotation Yrotation Zrotation
						JOINT LHoodieString2
						{
							OFFSET 0.000000 -9.643799 2.679100
							CHANNELS 3 Xrotation Yrotation Zrotation
							End Site
							{
								OFFSET 0.000000 10.009018 0.000000
							}
						}
					}
				}
				JOINT RHoodieString
				{
					OFFSET -5.250500 16.397697 3.089900
					CHANNELS 3 Xrotation Yrotation Zrotation
					JOINT RHoodieString1
					{
						OFFSET -0.257700 -6.364304 3.694600
						CHANNELS 3 Xrotation Yrotation Zrotation
						JOINT RHoodieString2
						{
							OFFSET 0.000000 -9.643799 2.679100
							CHANNELS 3 Xrotation Yrotation Zrotation
							End Site
							{
								OFFSET 0.000000 10.009018 0.000000
							}
						}
					}
				}
			}
			JOINT LBackpack_Strap
			{
				OFFSET 15.223200 -7.719803 -6.610900
				CHANNELS 3 Xrotation Yrotation Zrotation
				End Site
				{
					OFFSET 0.000000 16.040596 0.000000
				}
			}
			JOINT RBackpack_Strap
			{
				OFFSET -15.223000 -7.719803 -6.610900
				CHANNELS 3 Xrotation Yrotation Zrotation
				End Site
				{
					OFFSET 0.000000 16.040596 0.000000
				}
			}
		}
	}
	JOINT BoyFacialAnim_Joint
	{
		OFFSET 1.000000 -82.208099 -1.550900
		CHANNELS 3 Xrotation Yrotation Zrotation
		End Site
		{
			OFFSET 0.000000 30.012791 0.000000
		}
	}
}
MOTION
Frames: 4
Frame Time: 0.033333
0.351258 59.529823 -0.743093 20.091958 -66.543801 13.567625 -0.000000 0.000001 0.000000 -54.445326 -12.778720 46.680757 57.924731 -7.087213 -1.163708 -12.028877 -14.910651 -33.510219 0.000000 0.000000 0.000000 0.000000 0.000000 0.000000 -0.000000 -0.000001 -0.000003 -49.636576 6.195441 -29.737889 75.473959 7.876164 0.494058 -26.325199 -7.881797 26.421697 0.000000 -0.000000 0.000000 0.000000 -0.000000 0.000000 -0.000001 -0.000000 -0.000000 5.601228 5.590459 1.592091 2.653727 0.923443 2.264749 2.618896 0.958299 2.294950 22.967595 3.645905 -12.235478 -14.940149 35.724304 -15.349190 -0.000002 -0.000001 -0.000000 -0.000002 -0.000001 -0.000000 -0.000002 -0.000001 -0.000000 0.977098 0.397424 -10.608933 -44.216155 17.291380 -44.064873 0.000094 -69.696398 0.000103 0.743791 -22.709682 25.596376 -1.540038 3.690184 6.142341 3.946768 7.971381 0.752843 0.000000 0.000001 -0.000001 0.291043 1.984510 -16.685780 0.155185 1.456468 -12.162549 -0.000000 0.000002 0.000002 0.290501 1.982660 -16.669785 0.155581 1.458362 -12.178531 0.000002 0.000002 0.000001 0.291057 1.984505 -16.685771 0.155180 1.456468 -12.162561 -0.000003 0.000000 -0.000000 1.443003 5.872567 -16.254334 0.150193 -2.599203 -12.661871 0.000001 0.000004 0.000002 -0.000002 -0.000001 -0.000002 0.652649 1.498726 7.383874 -75.805872 51.231296 93.192597 0.000171 104.841307 -0.000193 -37.083160 5.765620 -31.668203 -1.849251 -3.581793 -6.586135 4.645023 -8.656777 -0.231319 0.000000 0.000005 0.000000 0.237533 -1.805382 14.989584 0.237539 -1.805394 14.989620 -0.000002 -0.000002 0.000001 0.237531 -1.805377 14.989607 0.237541 -1.805394 14.989605 0.000001 -0.000001 -0.000000 0.237536 -1.805371 14.989590 0.237533 -1.805387 14.989625 -0.000001 -0.000002 0.000002 0.237530 -1.805376 14.989588 0.237539 -1.805395 14.989607 0.000001 0.000003 0.000001 -0.000001 0.000001 0.000000 -0.000000 0.000000 -0.000000 -0.000000 0.000000 -0.000000 -0.000000 0.000000 -0.000000 -0.000000 0.000000 -0.000000 -0.000000 0.000000 -0.000000 0.000001 -0.000002 0.000001 -0.000000 0.000000 -0.000000 -0.000000 0.000000 -0.000000 0.000001 -0.000002 0.000001 0.000000 0.000002 -0.000000 0.000000 0.000002 -0.000000 -0.000000 0.000001 0.000000 
0.288521 59.515099 -0.768782 20.446721 -66.610149 13.864090 -0.000000 -0.000002 0.000000 -54.218188 -12.960909 46.705571 57.849400 -7.181120 -1.154600 -12.104957 -14.461606 -33.677037 -0.000000 0.000000 0.000000 -0.000000 0.000000 0.000000 0.000004 -0.000001 0.000001 -49.754776 6.278307 -29.557613 75.553763 7.951991 0.496120 -26.505044 -7.846094 26.338630 -0.000000 -0.000000 0.000000 -0.000000 -0.000000 0.000000 -0.000000 0.000000 0.000001 5.486496 5.639948 1.583411 2.642026 0.931656 2.292743 2.606405 0.959100 2.323379 22.869599 3.639413 -12.265191 -14.773733 35.680375 -15.326009 0.000000 -0.000001 0.000000 0.000000 -0.000001 0.000000 0.000000 -0.000001 0.000000 0.976595 0.419470 -10.623256 -44.069678 17.273427 -43.883549 -0.000032 -70.011153 -0.000025 0.388712 -22.397018 25.054413 -1.540042 3.690190 6.142340 3.946766 7.971381 0.752843 0.000000 0.000002 -0.000001 0.291044 1.984518 -16.685782 0.155183 1.456467 -12.162549 -0.000000 -0.000001 0.000003 0.290499 1.982671 -16.669785 0.155578 1.458359 -12.178531 0.000001 -0.000000 -0.000003 0.291057 1.984513 -16.685768 0.155179 1.456459 -12.162556 0.000002 0.000001 -0.000000 1.443002 5.872571 -16.254329 0.150193 -2.599199 -12.661876 -0.000001 -0.000000 -0.000002 -0.000001 -0.000000 -0.000003 0.652702 1.500564 7.401823 -76.302140 51.303935 93.678865 -0.000049 104.308887 0.000073 -37.423887 6.564796 -31.920500 -1.849248 -3.581790 -6.586143 4.645025 -8.656780 -0.231319 0.000002 0.000002 -0.000001 0.237533 -1.805382 14.989578 0.237537 -1.805395 14.989622 0.000000 0.000000 0.000002 0.237532 -1.805379 14.989598 0.237540 -1.805394 14.989603 0.000000 0.000001 -0.000000 0.237534 -1.805376 14.989584 0.237532 -1.805392 14.989625 0.000001 0.000001 -0.000001 0.237529 -1.805376 14.989586 0.237539 -1.805395 14.989608 -0.000000 0.000001 -0.000001 -0.000000 0.000001 -0.000002 0.000000 -0.000001 0.000000 0.000000 -0.000001 0.000000 0.000000 -0.000001 0.000000 0.000000 -0.000001 0.000000 0.000000 -0.000001 -0.000000 0.000000 -0.000001 -0.000000 0.000000 -0.000001 0.000000 0.000000 -0.000001 -0.000000 0.000000 -0.000001 -0.000000 0.000001 -0.000000 0.000001 0.000001 -0.000000 0.000001 -0.000000 -0.000002 0.000000 
0.195351 59.513809 -0.790311 20.716881 -66.685630 14.139415 -0.000001 0.000000 0.000000 -53.944281 -13.034807 46.723347 57.739393 -7.303190 -1.147541 -12.213760 -14.047699 -33.829374 0.000000 -0.000000 -0.000000 0.000000 -0.000000 -0.000000 -0.000001 0.000002 0.000001 -49.804940 6.370280 -29.437344 75.629196 7.976175 0.497871 -26.686801 -7.795185 26.280299 -0.000000 0.000000 -0.000000 -0.000000 0.000000 -0.000000 0.000001 -0.000001 -0.000004 5.446734 5.644326 1.537464 2.565023 0.930942 2.273952 2.529538 0.957076 2.303382 22.915510 3.652216 -12.190743 -14.523381 35.700296 -15.468090 0.000002 0.000000 -0.000000 0.000002 0.000000 -0.000000 0.000002 0.000000 -0.000000 0.978238 0.467544 -10.654169 -44.186375 17.421736 -43.750872 -0.000021 -70.304606 -0.000030 -0.078194 -21.975020 24.650453 -1.540042 3.690188 6.142339 3.946769 7.971384 0.752841 -0.000002 0.000001 -0.000001 0.291042 1.984511 -16.685780 0.155185 1.456463 -12.162549 -0.000001 -0.000001 -0.000000 0.290501 1.982666 -16.669785 0.155583 1.458356 -12.178527 -0.000000 -0.000002 -0.000004 0.291058 1.984506 -16.685771 0.155183 1.456461 -12.162561 -0.000000 0.000001 -0.000005 1.443003 5.872571 -16.254334 0.150197 -2.599199 -12.661873 -0.000000 0.000000 0.000003 -0.000001 0.000000 0.000000 0.650808 1.513018 7.389521 -76.511499 51.567805 93.838501 0.000134 103.849065 -0.000139 -38.304947 7.372566 -31.279763 -1.849250 -3.581799 -6.586139 4.645026 -8.656783 -0.231317 -0.000001 0.000002 0.000002 0.237532 -1.805385 14.989581 0.237536 -1.805393 14.989620 -0.000001 0.000000 0.000000 0.237532 -1.805381 14.989600 0.237540 -1.805393 14.989603 0.000000 -0.000001 -0.000001 0.237533 -1.805378 14.989588 0.237534 -1.805394 14.989624 -0.000000 -0.000000 0.000000 0.237530 -1.805382 14.989583 0.237540 -1.805393 14.989607 0.000000 0.000002 0.000000 0.000001 -0.000003 0.000004 0.000002 0.000000 -0.000000 0.000002 0.000000 -0.000000 0.000002 0.000000 -0.000000 0.000002 0.000000 -0.000000 0.000002 0.000000 -0.000000 0.000001 0.000000 -0.000000 0.000002 0.000000 -0.000000 0.000002 0.000000 -0.000000 0.000001 0.000000 -0.000000 0.000001 -0.000003 0.000000 0.000001 -0.000003 0.000000 -0.000001 0.000000 0.000000 
0.060185 59.531212 -0.829255 20.845927 -66.746781 14.282072 -0.000000 0.000000 -0.000000 -53.590863 -13.042609 46.790030 57.517720 -7.411369 -1.148032 -12.362963 -13.810595 -34.014069 0.000000 0.000000 0.000000 0.000000 0.000000 -0.000000 -0.000001 -0.000001 0.000002 -49.716093 6.475240 -29.244671 75.710188 7.970435 0.495380 -26.917272 -7.880538 26.220604 -0.000000 -0.000000 0.000000 -0.000000 -0.000000 0.000000 0.000002 0.000001 -0.000001 5.487532 5.622105 1.517885 2.445877 0.924065 2.221850 2.411417 0.952049 2.248900 23.005979 3.694028 -12.098671 -14.210448 35.811836 -15.662090 -0.000000 0.000000 -0.000000 -0.000000 0.000000 -0.000000 -0.000000 0.000000 -0.000000 0.980954 0.509280 -10.683434 -44.549151 17.608600 -43.594352 0.000055 -70.610011 0.000057 -1.292286 -21.427661 24.000651 -1.540041 3.690185 6.142339 3.946768 7.971382 0.752843 -0.000001 0.000002 -0.000001 0.291044 1.984513 -16.685778 0.155183 1.456469 -12.162546 0.000000 0.000001 0.000002 0.290499 1.982663 -16.669782 0.155581 1.458359 -12.178533 0.000004 -0.000000 -0.000003 0.291059 1.984506 -16.685770 0.155178 1.456468 -12.162561 -0.000002 0.000002 -0.000002 1.443002 5.872570 -16.254329 0.150194 -2.599205 -12.661873 -0.000000 0.000001 -0.000003 -0.000001 -0.000001 -0.000001 0.645277 1.514527 7.350918 -76.601453 52.011867 93.761879 0.000475 103.299706 -0.000460 -39.894886 8.225575 -29.616837 -1.849258 -3.581812 -6.586143 4.645025 -8.656782 -0.231320 0.000001 0.000002 -0.000000 0.237531 -1.805378 14.989581 0.237539 -1.805397 14.989620 -0.000001 0.000000 0.000002 0.237532 -1.805379 14.989598 0.237540 -1.805392 14.989610 0.000002 0.000001 0.000002 0.237535 -1.805376 14.989583 0.237534 -1.805389 14.989625 -0.000000 0.000001 -0.000001 0.237529 -1.805376 14.989584 0.237542 -1.805396 14.989605 -0.000001 0.000002 0.000000 0.000003 -0.000001 -0.000000 0.000000 -0.000000 -0.000000 0.000000 -0.000000 -0.000000 0.000000 -0.000000 -0.000000 0.000000 -0.000000 -0.000000 0.000000 -0.000000 -0.000001 0.000000 -0.000000 0.000000 0.000000 -0.000000 -0.000000 0.000000 -0.000000 -0.000001 0.000000 -0.000000 0.000000 -0.000000 0.000000 0.000001 -0.000000 0.000000 0.000001 -0.000000 0.000000 -0.000000 
